<?xml version="1.0" encoding="UTF-8"?>
<svg width="700pt" height="700pt" version="1.1" viewBox="0 0 700 700" xmlns="http://www.w3.org/2000/svg">
 <path d="m120.92 61.609c-20.566-0.625-24.016 29.172-3.8516 33.262l37.152 8.1367c19.652 94.016 41.074 187.64 61.848 281.42 1.707 7.6875 8.5273 13.16 16.406 13.156h295.02c22.73 0.33594 22.73-33.934 0-33.602h-281.54l-7.4375-33.59h303.86c7.875 0.003907 14.695-5.4688 16.406-13.156l37.207-167.98c2.3203-10.484-5.6562-20.426-16.395-20.43-128.54 0.003906-257.07-0.003906-385.61-0.0625l-9.1328-43.328c-1.3594-6.4648-6.3867-11.535-12.84-12.949l-47.773-10.457c-1.0938-0.25-2.2031-0.39844-3.3242-0.42578zm181.48 347.19c-24.543 0-44.797 20.258-44.797 44.801 0 24.543 20.254 44.801 44.797 44.801s44.797-20.258 44.797-44.801c0-24.543-20.254-44.801-44.797-44.801zm156.79 0c-24.543 0-44.797 20.258-44.797 44.801 0 24.543 20.254 44.801 44.797 44.801 24.543 0 44.797-20.258 44.797-44.801 0-24.543-20.254-44.801-44.797-44.801z"/>
</svg>
