<?xml version="1.0" encoding="UTF-8"?>
<svg width="700pt" height="700pt" version="1.1" viewBox="0 0 700 700" xmlns="http://www.w3.org/2000/svg">
 <path d="m593.38 237.9-90.059-69.898v-72.258c0-5.5664-4.5977-10.184-10.215-10.184h-45.41c-5.5312 0-10.113 4.5977-10.113 10.184v21.312l-61.957-48.09c-14.816-11.438-36.449-11.438-51.301 0.035156l-217.72 168.9c-12.59 9.7422-14.848 27.883-5.1094 40.438 9.7422 12.59 27.883 14.883 40.473 5.1094l30.004-23.301v222.49c0 9.3516 7.6211 16.969 16.969 16.969h114.45v-149.91h93.23v149.91h114.51c9.2812 0 16.902-7.6211 16.902-16.969v-222.49l30.004 23.301c5.3125 4.1055 11.504 6.0586 17.699 6.0586 8.5508 0 17.105-3.8516 22.773-11.168 9.7227-12.555 7.4688-30.695-5.125-40.438z"/>
</svg>
